<?xml version="1.0" encoding="UTF-8"?>
<svg viewBox="151 181 891 680" xmlns="http://www.w3.org/2000/svg" xmlns:xlink="http://www.w3.org/1999/xlink">
<style type="text/css">.st0{fill:#0C3544;}.st1{fill:#F39200;}</style>

<g id="Слой_2">

<g>
<path class="st0" d="M371.92,331.41h-99.19L154.87,671.56h86.65l16.65-59.5h23.96c-2.71,0-9.38-2.26-9.4-4.55    c-0.02-2.2,6.21-3.99,9.4-4.79h10.49v-16.47l79.3-35.09l-21.61,25.98v25.58h4.58c2.61,0,9.04,2.26,9.06,4.54    c0.02,2.21-5.99,4-9.06,4.8h30.21l15.56,59.5h87.25L371.92,331.41z M292.62,441.21v-10.52l27.28-42.73l30.41,42.73v5.8    l-92.14,42.09L292.62,441.21z M350.31,536.9v9.12l-80.91,34.49l23.22-26.13v-8.36l79.3-35.09L350.31,536.9z M350.31,499.87v9.12    l-80.91,34.48l23.22-26.13v-8.35l79.3-35.1L350.31,499.87z M350.31,464.74v9.12l-80.91,34.48l23.22-26.12v-8.36l79.3-35.1    L350.31,464.74z"/>
<polygon class="st1" points="718.73,689.54 718.73,860.36 654.3,860.36 654.3,746.04 609.54,860.36 563.05,860.36 518.29,746.04     518.29,860.36 453.86,860.36 453.86,689.54 558,689.54 586.04,766.12 614.59,689.54   "/>
<rect class="st1" height="170.82" width="64.43" x="363.95" y="689.54"/>
<polygon class="st1" points="338.48,732.58 338.48,689.54 151.17,689.54 151.17,732.58 214.11,732.58 214.11,860.36     278.54,860.36 278.54,732.58   "/>
<polygon class="st1" points="743.36,860.36 743.36,689.54 933.27,689.54 933.27,732.58 809.53,732.58 809.53,752.79     910.54,752.79 910.54,794.71 809.53,794.71 809.53,815.92 940.85,815.92 940.85,860.36   "/>

<polygon class="st1" points="464.79,546.29 508.13,494.69 667.75,671.56 645.73,671.56 502.63,519.72   "/>

<path class="st0" d="M434.81,469.41l-27.13-81.46V331.4h335.68h0c50.17,0,90.85,40.67,90.85,90.85v42.59    c0,50.17-40.67,90.85-90.85,90.85h-39.29v10.2l94.75,105.67h-94.75l-69.56-83.48v-57.36h-58.18l-37.9-43.78h196.75    c15.45,0,27.97-12.52,27.97-27.97v-26.23c0-15.45-12.52-27.97-27.97-27.97H478.59v64.63H434.81z"/>
<rect class="st0" height="340.15" width="67.88" x="860.99" y="331.4"/>
<g>
<rect class="st1" height="15.7" width="15.7" x="484.59" y="570.29"/>
<rect class="st1" height="15.7" width="15.7" x="515.98" y="570.29"/>
<rect class="st1" height="15.7" width="15.7" x="515.98" y="601.64"/>
<rect class="st1" height="15.7" width="15.7" x="484.59" y="601.64"/>
</g>
<path class="st1" d="M834.81,250.01c-8.34-1.33-14.88,0.31-16.92,0.89C819.93,250.32,826.52,248.42,834.81,250.01z"/>
<path class="st1" d="M864.78,182.49c-0.02,0.03-0.04,0.06-0.06,0.09c-2.49,3.61-6.79,8.78-13.56,13.08    c-2.75,1.75-8.24,5.16-16.35,6.45c-8.34,1.33-14.88-0.31-16.92-0.89c-9.37-2.63-13.45-7.54-19.07-11.78    c-13.83-10.42-35.68-6.95-35.68-6.95v87.14c0,0,21.85,3.47,35.68-6.95c0.35-0.27,0.7-0.53,1.04-0.8    c5.11-4.04,9.25-8.51,18.03-10.98c2.04-0.58,8.63-2.48,16.92-0.89c6.59,1.05,11.45,3.5,14.51,5.32c-1.52-0.87-3.47-1.88-5.88-2.83    c24.84,10.32,17.55,59.43,17.55,59.43h67.88c28.03-136.41,113.14-6.94,113.14-6.94C1012.48,176.41,864.78,182.49,864.78,182.49z     M849.36,255.36c0.46,0.26,0.87,0.52,1.25,0.75C850.23,255.88,849.82,255.63,849.36,255.36z"/>
<path class="st1" d="M834.81,250.01c-8.34-1.33-14.88,0.31-16.92,0.89C819.93,250.32,826.52,248.42,834.81,250.01z"/>
</g>
</g>
</svg>