<svg xmlns="http://www.w3.org/2000/svg">

  <symbol id="icon-phone" viewBox="0 0 24 24">
    <path d="M6.6 10.8c1.4 2.8 3.7 5.1 6.5 6.5l2.2-2.2c.3-.3.7-.4 1-.3 1.1.3 2.2.5 3.4.5.6 0 1 .4 1 1V20c0 .6-.4 1-1 1C10.3 21 3 13.7 3 4c0-.6.4-1 1-1h3.5c.6 0 1 .4 1 1 0 1.2.2 2.3.5 3.4.1.3 0 .7-.3 1L6.6 10.8z"/>
  </symbol>

  <symbol id="icon-mail" viewBox="0 0 24 24">
    <path d="M20 4H4c-1.1 0-2 .9-2 2v12c0 
    1.1.9 2 2 2h16c1.1 0 2-.9 
    2-2V6c0-1.1-.9-2-2-2zm0 
    4-8 5-8-5V6l8 5 8-5v2z"/>
  </symbol>
  <symbol id="icon-instagram" viewBox="0 0 24 24">
  <path
    fill="currentColor"
    d="M7 2C4.24 2 2 4.24 2 7v10c0 2.76 2.24 5 5 5h10c2.76 0 5-2.24 
    5-5V7c0-2.76-2.24-5-5-5H7zm10 2c1.65 0 3 1.35 
    3 3v10c0 1.65-1.35 3-3 3H7c-1.65 0-3-1.35-3-3V7c0-1.65 
    1.35-3 3-3h10zm-5 3a5 5 0 100 10 5 5 0 
    000-10zm0 2a3 3 0 110 6 3 3 0 010-6zm4.5-2.75a1.25 1.25 0 
    100 2.5 1.25 1.25 0 000-2.5z"
  />
</symbol>
<symbol id="icon-close" viewBox="0 0 24 24">
  <path d="M6 6L18 18M18 6L6 18" stroke="currentColor" stroke-width="2" stroke-linecap="round"/>
</symbol>
</svg>